<?xml version="1.0" encoding="UTF-8" standalone="no" ?>
<!DOCTYPE svg PUBLIC "-//W3C//DTD SVG 1.1//EN" "http://www.w3.org/Graphics/SVG/1.1/DTD/svg11.dtd">
<svg xmlns="http://www.w3.org/2000/svg" xmlns:xlink="http://www.w3.org/1999/xlink" version="1.1" width="45pt" height="35.65pt" viewBox="227.5 227.5 45 35.64999999999998" xml:space="preserve">
<desc>Created with Fabric.js 4.6.0</desc>
<defs>
</defs>
<g transform="matrix(1 0 0 1 250 240)" id="-O7-PVbN4z2xHa327K_UE"  >
<path style="stroke: none; stroke-width: 1; stroke-dasharray: none; stroke-linecap: butt; stroke-dashoffset: 0; stroke-linejoin: miter; stroke-miterlimit: 4; fill: rgb(255,0,0); fill-rule: nonzero; opacity: 1;" vector-effect="non-scaling-stroke"  transform=" translate(-24, -14)" d="M 40.5 2 L 7.5 2 C 4.48 2 2 4.16 2 6.82 L 2 24.72 C 2 25.419999999999998 2.62 26 3.38 26 C 4.14 26 4.76 25.42 4.76 24.72 L 4.76 6.82 C 4.76 5.58 6 4.58 7.5 4.58 L 40.5 4.58 C 42 4.58 43.24 5.6 43.24 6.82 L 43.24 24.72 C 43.24 25.419999999999998 43.86 26 44.620000000000005 26 C 45.400000000000006 26 46.00000000000001 25.42 46.00000000000001 24.72 L 46.00000000000001 6.82 C 46 4.16 43.52 2 40.5 2 z" stroke-linecap="round" />
</g>
<g transform="matrix(1 0 0 1 250 250.65)" id="UGjbFQAiZwn9jRNaHP3lQ"  >
<path style="stroke: none; stroke-width: 1; stroke-dasharray: none; stroke-linecap: butt; stroke-dashoffset: 0; stroke-linejoin: miter; stroke-miterlimit: 4; fill: rgb(255,255,255); fill-rule: nonzero; opacity: 1;" vector-effect="non-scaling-stroke"  transform=" translate(-12, -12)" d="M 0 12 C 0 5.37258 5.37258 0 12 0 C 18.62742 0 24 5.37258 24 12 C 24 18.62742 18.62742 24 12 24 C 5.37258 24 0 18.62742 0 12 z" stroke-linecap="round" />
</g>
<g transform="matrix(1 0 0 1 250 250.65)" id="kaotCqYOpcsMPlcD6lWSU"  >
<path style="stroke: none; stroke-width: 1; stroke-dasharray: none; stroke-linecap: butt; stroke-dashoffset: 0; stroke-linejoin: miter; stroke-miterlimit: 4; fill: rgb(255,255,255); fill-rule: evenodd; opacity: 1;" vector-effect="non-scaling-stroke"  transform=" translate(-12, -12)" d="M 12 22.5 C 17.7989901 22.5 22.5 17.7989901 22.5 12 C 22.5 6.20100984 17.7989901 1.5 12 1.5 C 6.20100984 1.5 1.5 6.20100984 1.5 12 C 1.5 17.7989901 6.20100984 22.5 12 22.5 Z" stroke-linecap="round" />
</g>
<g transform="matrix(1 0 0 1 250 250.65)" id="7IjIYno_5E-3JzIrOvOpv"  >
<path style="stroke: rgb(0,0,0); stroke-width: 2; stroke-dasharray: none; stroke-linecap: butt; stroke-dashoffset: 0; stroke-linejoin: miter; stroke-miterlimit: 4; fill: none; fill-rule: nonzero; opacity: 1;" vector-effect="non-scaling-stroke"  transform=" translate(-12, -12)" d="M 12 21.5 C 17.2467054 21.5 21.5 17.2467054 21.5 12 C 21.5 6.7532946 17.2467054 2.5 12 2.5 C 6.75329459 2.5 2.5 6.75329459 2.5 12 C 2.5 17.2467054 6.7532946 21.5 12 21.5 Z" stroke-linecap="round" />
</g>
<g transform="matrix(1 0 0 1 250 250.32)" id="qUOdJ5xVg7NDgPyiBuBwQ"  >
<path style="stroke: none; stroke-width: 1; stroke-dasharray: none; stroke-linecap: butt; stroke-dashoffset: 0; stroke-linejoin: miter; stroke-miterlimit: 4; fill: rgb(0,0,0); fill-rule: nonzero; opacity: 1;" vector-effect="non-scaling-stroke"  transform=" translate(-10.5, -10.17)" d="M 10.5 7 L 13.8287 9.41844 L 12.55725 13.33156 L 8.44275 13.33156 L 7.1713000000000005 9.41844 z" stroke-linecap="round" />
</g>
<g transform="matrix(1.05 0 0 0.95 249.5 243)" id="aQjtF-mlDPAxlW2Tro4NB"  >
<path style="stroke: none; stroke-width: 1; stroke-dasharray: none; stroke-linecap: butt; stroke-dashoffset: 0; stroke-linejoin: miter; stroke-miterlimit: 4; fill: rgb(0,0,0); fill-rule: nonzero; opacity: 1;" vector-effect="non-scaling-stroke"  transform=" translate(-10.5, -0.37)" d="M 10.5 -2.8 L 13.8287 -0.3815599999999999 L 12.55725 3.5315600000000003 L 8.44275 3.5315600000000003 L 7.1713000000000005 -0.3815599999999999 z" stroke-linecap="round" />
</g>
<g transform="matrix(1.05 0 0 0.95 244.5 255)" id="BdcKzJhJXY7AD08jpgqVw"  >
<path style="stroke: none; stroke-width: 1; stroke-dasharray: none; stroke-linecap: butt; stroke-dashoffset: 0; stroke-linejoin: miter; stroke-miterlimit: 4; fill: rgb(0,0,0); fill-rule: nonzero; opacity: 1;" vector-effect="non-scaling-stroke"  transform=" translate(-4.9, -18.57)" d="M 4.9 15.4 L 8.2287 17.81844 L 6.95725 21.731559999999998 L 2.8427500000000006 21.731559999999998 L 1.5713000000000006 17.81844 z" stroke-linecap="round" />
</g>
<g transform="matrix(1 0 0 1 255.6 258.72)" id="_xjOPUiKyhMsGFE24bapK"  >
<path style="stroke: none; stroke-width: 1; stroke-dasharray: none; stroke-linecap: butt; stroke-dashoffset: 0; stroke-linejoin: miter; stroke-miterlimit: 4; fill: rgb(0,0,0); fill-rule: nonzero; opacity: 1;" vector-effect="non-scaling-stroke"  transform=" translate(-16.1, -18.57)" d="M 16.1 15.4 L 19.428700000000003 17.81844 L 18.15725 21.731559999999998 L 14.042750000000002 21.731559999999998 L 12.771300000000002 17.81844 z" stroke-linecap="round" />
</g>
<g transform="matrix(1.05 0 0 0.95 243.5 248)" id="UYi5lKBtp4z0EHe4JWwRZ"  >
<path style="stroke: none; stroke-width: 1; stroke-dasharray: none; stroke-linecap: butt; stroke-dashoffset: 0; stroke-linejoin: miter; stroke-miterlimit: 4; fill: rgb(0,0,0); fill-rule: nonzero; opacity: 1;" vector-effect="non-scaling-stroke"  transform=" translate(-0.7, -7.37)" d="M 0.7 4.2 L 4.0287 6.61844 L 2.75725 10.531559999999999 L -1.3572499999999996 10.531559999999999 L -2.6286999999999994 6.618439999999999 z" stroke-linecap="round" />
</g>
<g transform="matrix(1.05 0 0 0.95 256.5 247)" id="4suRanS4GprOdr8anCBfV"  >
<path style="stroke: none; stroke-width: 1; stroke-dasharray: none; stroke-linecap: butt; stroke-dashoffset: 0; stroke-linejoin: miter; stroke-miterlimit: 4; fill: rgb(0,0,0); fill-rule: nonzero; opacity: 1;" vector-effect="non-scaling-stroke"  transform=" translate(-20.3, -7.37)" d="M 20.3 4.2 L 23.628700000000002 6.61844 L 22.35725 10.531559999999999 L 18.24275 10.531559999999999 L 16.9713 6.618439999999999 z" stroke-linecap="round" />
</g>
<g transform="matrix(1 0 0 1 255 255.65)" id="7-8dk8N5FQpoxiGiHrbIG"  >
<path style="stroke: none; stroke-width: 1; stroke-dasharray: none; stroke-linecap: butt; stroke-dashoffset: 0; stroke-linejoin: miter; stroke-miterlimit: 4; fill: rgb(229,28,35); fill-rule: nonzero; opacity: 1;" vector-effect="non-scaling-stroke"  transform=" translate(-6, -6)" d="M 0 6 C 0 2.68629 2.68629 0 6 0 C 9.31371 0 12 2.68629 12 6 C 12 9.31371 9.31371 12 6 12 C 2.68629 12 0 9.31371 0 6 z" stroke-linecap="round" />
</g>
<g transform="matrix(1 0 0 1 255 255.65)" id="BKewHTr46zls5lPP0eNhg"  >
<path style="stroke: none; stroke-width: 1; stroke-dasharray: none; stroke-linecap: butt; stroke-dashoffset: 0; stroke-linejoin: miter; stroke-miterlimit: 4; fill: rgb(255,255,255); fill-rule: nonzero; opacity: 1;" vector-effect="non-scaling-stroke"  transform=" translate(-6, -6)" d="M 7.9395 3 L 6 4.9395 L 4.0605 3 L 3 4.0605 L 4.9395 6 L 3 7.9395 L 4.0605 9 L 6 7.0605 L 7.9395 9 L 9 7.9395 L 7.0605 6 L 9 4.0605 z" stroke-linecap="round" />
</g>
</svg>
